<?xml version="1.0" encoding="UTF-8" standalone="no"?>
<!-- Created with Inkscape (http://www.inkscape.org/) -->

<svg
   width="1127"
   height="363"
   viewBox="0 0 298.18376 96.04408"
   version="1.1"
   id="svg1"
   inkscape:version="1.4 (86a8ad7, 2024-10-11)"
   sodipodi:docname="b.svg"
   xmlns:inkscape="http://www.inkscape.org/namespaces/inkscape"
   xmlns:sodipodi="http://sodipodi.sourceforge.net/DTD/sodipodi-0.dtd"
   xmlns="http://www.w3.org/2000/svg"
   xmlns:svg="http://www.w3.org/2000/svg">
  <sodipodi:namedview
     id="namedview1"
     pagecolor="#ffffff"
     bordercolor="#999999"
     borderopacity="1"
     inkscape:showpageshadow="2"
     inkscape:pageopacity="0"
     inkscape:pagecheckerboard="true"
     inkscape:deskcolor="#d1d1d1"
     inkscape:document-units="px"
     inkscape:zoom="0.70710678"
     inkscape:cx="542.3509"
     inkscape:cy="354.2605"
     inkscape:window-width="1366"
     inkscape:window-height="705"
     inkscape:window-x="-8"
     inkscape:window-y="-8"
     inkscape:window-maximized="1"
     inkscape:current-layer="layer1"
     showguides="false"
     showborder="true"
     inkscape:antialias-rendering="true"
     labelstyle="default" />
  <defs
     id="defs1" />
  <g
     inkscape:label="Layer 1"
     inkscape:groupmode="layer"
     id="layer1">
    <rect
       style="fill:#000000;fill-opacity:1;fill-rule:evenodd;stroke:#000000;stroke-width:1.45777;stroke-linecap:round;paint-order:fill markers stroke"
       id="rect24"
       width="12.322683"
       height="41.157768"
       x="234.46449"
       y="18.550577" />
    <rect
       style="fill:#000000;fill-opacity:1;fill-rule:evenodd;stroke:#000000;stroke-width:1.45777;stroke-linecap:round;paint-order:fill markers stroke"
       id="rect25"
       width="13.308498"
       height="39.432587"
       x="280.05838"
       y="19.536394" />
    <path
       style="fill:none;fill-opacity:1;fill-rule:evenodd;stroke:#000000;stroke-width:1.45777;stroke-linecap:round;paint-order:fill markers stroke"
       d="m 234.71089,79.671091 c 0,0 29.8209,33.517709 60.6276,0.492906"
       id="path31" />
    <path
       style="fill:none;fill-rule:evenodd;stroke:#000000;stroke-width:2.17025;stroke-linecap:round;paint-order:fill markers stroke"
       id="path7"
       d="m 11.875333,14.242631 c 8.479711,-0.445143 16.899293,-1.992046 25.303378,-3.44636 5.147938,-0.82878 10.293687,-1.7650063 15.482876,-2.0373973 1.523238,-0.079954 3.048725,-0.048359 4.57309,-0.072532 0,0 -3.212424,-3.0233432 -3.212424,-3.0233432 v 0 C 52.509665,5.7095518 50.99551,5.7018067 49.484489,5.8026844 44.335413,6.146439 39.23563,7.1469567 34.126839,7.9920472 25.48581,9.4643893 16.781282,11.042523 8.0441561,10.623341 Z" />
    <path
       style="fill:none;fill-rule:evenodd;stroke:#000000;stroke-width:2.17025;stroke-linecap:round;paint-order:fill markers stroke"
       id="path8"
       d="m 26.299182,5.8198978 c 0.222635,2.433059 0.230957,2.7119316 0.596125,5.5445062 0.746788,5.792779 0.882238,5.680134 1.497853,12.108326 0.722661,7.545955 0.657497,8.33004 0.975215,15.841205 0.04276,2.296983 0.08552,4.593965 0.128278,6.890947 0,0 3.402179,2.23452 3.402179,2.23452 v 0 C 32.817017,46.112914 32.735203,43.786425 32.653384,41.459937 32.340807,34.491896 32.301404,32.649991 31.813132,25.668686 31.022586,14.365496 31.572591,23.225202 30.786495,13.867295 30.54555,10.999017 30.576548,11.015661 30.537763,8.6280239 Z" />
    <path
       style="fill:none;fill-rule:evenodd;stroke:#000000;stroke-width:1.92414;stroke-linecap:round;paint-order:fill markers stroke"
       id="path9"
       d="m 48.37766,9.0817738 c 0.983111,6.1984172 1.286231,12.5067612 0.912424,18.7722442 -0.112005,1.87727 -0.330488,3.746672 -0.49573,5.620007 -0.464592,4.019491 -1.083747,8.020294 -1.995783,11.963224 -0.09707,0.419652 -0.673675,1.006975 -0.319479,1.252081 4.843885,3.352035 4.257439,2.400208 5.143016,-0.756449 1.461137,-4.433955 2.938941,-8.905836 5.036342,-13.090719 1.014016,-2.02323 1.319442,-2.372809 2.505234,-4.146831 0.336476,-0.414293 1.271932,-1.74205 1.93057,-2.025075 0.186186,-0.08 0.784445,0.172798 0.602031,0.08452 -1.190142,-0.575894 -2.325497,-1.543414 -3.647566,-1.558227 -0.526213,-0.0059 0.329248,1.003564 0.419249,1.522058 0.126326,0.727778 0.151706,1.469514 0.227559,2.204272 0.135682,5.209872 -0.200788,10.417411 -0.460464,15.618567 -0.03074,0.59018 -0.06148,1.18036 -0.09223,1.77054 0,0 4.060649,2.086583 4.060649,2.086583 v 0 c 0.01013,-0.600286 0.02023,-1.200573 0.03032,-1.80086 0.129354,-5.224236 0.376553,-10.444378 0.46965,-15.669123 -0.03081,-0.73503 -0.0299,-1.472076 -0.09242,-2.205092 -0.04597,-0.539001 0.152995,-1.226695 -0.232585,-1.606119 -0.735552,-0.723815 -3.718742,-4.014749 -5.27504,-2.914113 -0.636711,0.450291 -1.430964,1.695992 -1.816836,2.232011 -1.090357,1.81219 -1.427949,2.275646 -2.369315,4.300269 -1.974735,4.247119 -3.350963,8.742441 -5.184363,13.047848 -1.253395,2.939389 -2.132997,3.073316 2.863383,5.079661 0.426369,0.171214 0.02287,-0.919337 0.06518,-1.376844 0.379198,-4.098718 1.144642,-8.152803 1.506761,-12.253933 0.179484,-1.873091 0.397223,-3.74291 0.538455,-5.619273 0.462102,-6.139338 0.401116,-12.294875 -0.0767,-18.430761 z" />
    <path
       style="fill:none;fill-rule:evenodd;stroke:#000000;stroke-width:1.92414;stroke-linecap:round;paint-order:fill markers stroke"
       id="path10"
       d="m 78.240591,18.730644 c 6.075464,-0.48405 12.030484,-1.886066 17.855041,-3.628421 0.60644,-0.296772 3.50388,-1.170248 3.45232,-2.67932 -0.0211,-0.617645 -0.49367,-1.226164 -1.02188,-1.546974 -2.10571,-1.2788879 -4.3067,-2.5205919 -6.69176,-3.1378669 -2.549272,-0.659774 -7.681323,1.05365 -9.847089,1.616152 -1.772372,0.8559349 -3.641586,1.5350789 -5.31712,2.5678069 -3.363269,2.072985 -6.276219,4.731884 -8.414838,8.077115 -1.925029,3.01114 -3.252531,6.270743 -2.561755,9.935386 0.298962,1.586024 1.341057,2.936149 2.011585,4.404226 4.813224,3.949436 5.28644,4.993681 12.689051,6.806473 3.160619,0.77399 9.005571,-0.302192 12.105616,-0.715735 0,0 -3.046218,-2.153146 -3.046218,-2.153146 v 0 c -10.343543,1.330072 -1.519583,0.524492 -12.069237,0.542107 -0.695922,0.0013 -1.444028,0.530705 -2.074407,0.235865 -1.520131,-0.711 -2.659236,-2.04786 -3.988855,-3.071794 -0.707496,-1.415859 -1.778709,-2.702578 -2.12249,-4.247578 -0.805568,-3.620334 0.418416,-6.775478 2.306331,-9.787624 2.084951,-3.326505 4.947456,-5.943226 8.298306,-7.953778 1.679206,-1.007544 3.55574,-1.642011 5.333611,-2.463017 1.805815,-0.402755 3.578993,-1.000243 5.417448,-1.208267 1.555601,-0.17602 3.208021,0.550065 4.696151,0.0639 0.50635,-0.165427 -1.34939,-0.9451109 -0.94337,-1.2899339 0.41113,-0.349151 1.09814,0.515051 1.24451,1.0341859 0.41,1.454144 -2.6547,2.41002 -2.97153,2.574824 -1.05524,0.335195 -2.099014,0.70891 -3.165731,1.005582 -4.892045,1.360563 -9.9811,2.198197 -15.064501,2.193004 z" />
    <path
       style="fill:none;fill-rule:evenodd;stroke:#000000;stroke-width:1.92414;stroke-linecap:round;paint-order:fill markers stroke"
       id="path11"
       d="m 7.7906647,62.961055 c 0.1805252,0.700954 0.3354715,1.408999 0.5415758,2.102862 3.5808605,12.055202 -1.3976815,-5.498739 2.6823135,8.830832 1.309426,4.598908 2.516616,9.223228 3.856018,13.813603 1.359032,3.351552 1.243348,4.839314 6.920126,4.821016 1.253137,-0.004 2.032403,-1.473763 2.967994,-2.307456 3.928909,-3.500992 2.591023,-2.896037 6.331614,-6.579587 0.880207,-0.86678 1.860711,-1.625435 2.79107,-2.438156 -0.702233,-3.84873 4.380238,0.556824 4.44262,-0.956713 0.02987,-0.724808 -1.903547,-1.501087 -2.029127,-0.786618 -0.165031,0.938896 1.252405,1.445365 1.77297,2.243969 1.126885,1.728765 2.027308,3.882789 2.880174,5.753452 1.177386,2.819348 2.132342,7.009782 7.062148,5.139001 1.232794,-0.467825 0.984808,-2.450264 1.363733,-3.71322 1.028351,-3.427497 2.38843,-9.735169 3.137045,-13.032219 1.567497,-7.158885 2.823709,-14.379522 4.110816,-21.59225 0,0 -3.194544,-1.693688 -3.194544,-1.693688 v 0 c -1.086933,7.252831 -2.200181,14.508545 -3.974078,21.634194 -1.141495,4.334828 -2.074801,8.473604 -3.711529,12.64419 -0.448075,1.14175 -1.860594,2.089986 -1.636144,3.295798 0.256397,1.377424 1.76779,2.193763 2.828392,3.109279 1.139003,0.983196 -4.658279,-5.832079 -2.07924,-4.006593 -0.666748,-1.464125 -1.974895,-4.436129 -2.786899,-5.812355 -0.480472,-0.814329 -0.884177,-1.737508 -1.625175,-2.324792 -1.762697,-1.397044 -3.698242,-2.611992 -5.754279,-3.523877 -0.638779,-0.283309 -1.431304,-0.173608 -2.095935,0.0422 -0.842231,0.273463 -1.514884,0.917424 -2.272328,1.376138 -0.888343,0.852016 -1.805628,1.674846 -2.665029,2.556047 -2.498124,2.56149 -3.581196,4.203371 -6.430808,6.413014 -0.952424,0.73853 -2.69507,0.759814 -3.073692,1.90401 -0.291725,0.881596 1.023105,2.809111 1.717944,2.193061 0.720102,-0.638452 -0.842347,-1.730643 -1.26352,-2.595964 -0.430455,-1.284058 -0.89536,-2.557074 -1.291362,-3.852174 -0.697906,-2.28245 -2.168709,-7.794572 -2.758046,-10.03724 -0.207429,-0.789349 -1.888858,-7.280725 -2.165041,-8.553889 -0.14048,-0.647589 -0.208372,-1.308816 -0.312558,-1.963228 z" />
    <path
       style="fill:none;fill-rule:evenodd;stroke:#000000;stroke-width:1.92414;stroke-linecap:round;paint-order:fill markers stroke"
       id="path12"
       d="m 58.965604,79.65696 c 1.599516,0.889393 3.152256,1.868689 4.79855,2.668183 0.540432,0.262451 2.146487,0.227979 2.60269,0.167863 2.50827,-0.330519 4.251751,-1.400215 6.393906,-2.649178 2.235702,-1.52528 4.372063,-3.213651 6.30182,-5.115334 0.48628,-0.479205 1.876078,-1.853209 2.099082,-2.681175 0.09683,-0.359485 -0.08394,-0.739843 -0.125927,-1.109763 -1.724743,-1.029366 -3.332692,-2.286177 -5.174229,-3.088097 -0.847769,-0.369175 -4.409758,0.154455 -4.957555,0.237862 -1.875558,0.28557 -4.497695,0.809848 -6.307139,1.412427 -0.932961,0.310693 -1.818918,0.747872 -2.728375,1.12181 -0.739454,0.573989 -1.541702,1.075138 -2.218355,1.721969 -2.782235,2.659593 -3.967233,6.69725 -2.917009,10.445137 0.319791,1.141222 0.959907,2.16731 1.439859,3.250963 0.706673,0.959838 1.329386,1.987564 2.120015,2.879515 2.361561,2.664213 5.501797,4.469693 8.73149,5.904046 0.82884,0.368102 1.792204,0.459502 2.694998,0.373216 2.201834,-0.210436 3.887818,-1.53191 5.691853,-2.621671 2.84913,-2.026449 5.252951,-4.547239 7.634941,-7.080345 0,0 -3.657757,-2.22152 -3.657757,-2.22152 v 0 c -2.312473,2.550433 -4.664202,5.059807 -7.557679,6.978217 -1.898989,1.061144 -3.362856,2.195821 -5.625338,2.307331 -0.862758,0.04251 -1.700961,-0.605709 -2.551338,-0.453984 -0.417111,0.07442 1.342362,1.025141 1.045708,0.722623 -5.067636,-5.167803 -0.121976,0.893651 -4.679543,-5.028621 -0.477161,-1.033539 -1.112855,-2.007748 -1.431483,-3.100615 -1.040032,-3.567248 0.11744,-7.48083 2.762915,-10.020882 0.646323,-0.62057 1.418808,-1.094686 2.128212,-1.642027 0.883676,-0.367865 1.742886,-0.80114 2.651032,-1.103596 2.723667,-0.907112 6.341793,-1.572979 9.222069,-1.493548 0.719493,0.01984 2.388028,0.988538 2.136316,0.31422 -0.382796,-1.025479 -1.807217,-1.235526 -2.710825,-1.853289 0.120635,0.27775 0.399711,0.5328 0.361908,0.833249 -0.100573,0.799324 -1.460437,2.241305 -1.860973,2.662994 -1.839957,1.937133 -3.938467,3.615836 -6.181547,5.061514 -2.136616,1.128319 -3.992929,2.166848 -6.462812,2.312371 -0.503308,0.02966 -1.01147,-0.01676 -1.509575,-0.09483 -0.376665,-0.05903 -1.405696,-0.541724 -1.099818,-0.314119 1.073893,0.79908 2.297858,1.373662 3.446787,2.060494 z" />
    <path
       style="fill:none;fill-rule:evenodd;stroke:#000000;stroke-width:1.92414;stroke-linecap:round;paint-order:fill markers stroke"
       id="path18"
       d="m 78.760794,45.916719 c 3.42844,6.646517 6.685308,13.385003 9.633884,20.259303 1.377003,3.391347 2.615338,6.840688 3.488625,10.398487 0.379298,1.545272 0.624918,2.695417 0.702909,4.260325 0.02742,0.550267 -0.01597,1.101788 -0.02393,1.652683 -0.01974,1.808765 -0.938968,4.074513 0.237098,5.723545 0.215754,0.302525 0.528822,0.522139 0.793231,0.783207 1.750026,0.952474 3.431105,2.044317 5.250075,2.85742 0.537445,0.240243 1.157384,0.241006 1.745384,0.269638 2.15706,0.105047 5.12344,-0.380252 6.96105,-1.552044 0.91411,-0.582892 1.63761,-1.421134 2.45642,-2.131701 0.72392,-0.965829 1.54926,-1.863366 2.17176,-2.897482 1.04677,-1.73896 2.26857,-4.655965 2.38846,-6.739419 0.14881,-2.58619 -0.65728,-5.11585 -1.79283,-7.391255 -0.54859,-1.099305 -1.3151,-2.075634 -1.97265,-3.113451 -0.74768,-0.829841 -1.43184,-1.721657 -2.24306,-2.489525 -2.22271,-2.103967 -5.75046,-3.894932 -8.35107,-4.860236 -1.211634,-0.449738 -3.474624,0.08873 -4.605034,0.50864 -0.687188,0.255268 -1.31192,0.654528 -1.967879,0.981791 -2.869437,1.732376 -4.743366,4.480957 -6.28308,7.381107 -0.06747,0.261592 -0.134957,0.523184 -0.202436,0.784777 0,0 4.208178,2.243205 4.208178,2.243205 v 0 c 0.02524,-0.233799 0.05049,-0.467594 0.07574,-0.701393 1.384949,-2.877444 3.149013,-5.557063 5.952873,-7.23469 1.52864,-0.731536 2.275197,-1.261749 4.022688,-1.389459 0.75913,-0.05547 1.81067,0.759066 2.27797,0.158249 0.38858,-0.499587 -1.98911,-1.542313 -1.42563,-1.254102 1.93782,0.991169 3.24069,2.650677 4.70153,4.186682 1.67721,2.511893 2.67543,3.557054 3.45199,6.564701 0.95609,3.702958 0.12382,7.010205 -1.85565,10.21065 -0.61968,1.001918 -1.45688,1.851725 -2.18532,2.777582 -0.82514,0.651214 -1.56679,1.425119 -2.47541,1.953632 -1.30791,0.760759 -3.33765,1.168515 -4.830378,1.282006 -0.705162,0.05361 -1.418503,0.04644 -2.121347,-0.03192 -0.595043,-0.06632 -2.103,-0.884165 -1.751142,-0.399736 0.644807,0.887746 1.841133,1.194025 2.761699,1.79104 -0.281485,-0.200655 -0.608438,-0.349394 -0.84446,-0.601963 -1.363031,-1.458617 -0.457337,-3.875869 -0.465505,-5.585555 -3.26e-4,-0.576238 0.03904,-1.153903 -0.0013,-1.72872 C 96.525365,81.154919 96.239972,80.089015 95.778164,78.424667 94.774563,74.807723 93.450551,71.295013 92.004442,67.833672 89.10712,61.159088 85.965131,54.595213 83.130927,47.893851 Z" />
    <path
       style="fill:none;fill-rule:evenodd;stroke:#000000;stroke-width:1.92414;stroke-linecap:round;paint-order:fill markers stroke"
       id="path19"
       d="m 130.14904,60.751756 c -2.55478,-0.593972 -5.09506,-1.3238 -7.73923,-1.355108 -0.59309,-0.007 -1.18504,0.05389 -1.77757,0.08083 -0.55595,0.118755 -1.13675,0.153547 -1.66789,0.356254 -2.70236,1.031329 -4.22369,4.079743 -3.95557,6.885835 0.0885,0.926223 0.47749,1.79858 0.71624,2.697868 0.51213,0.83663 0.9352,1.734773 1.53639,2.509886 1.11752,1.440807 2.87295,2.939305 4.41892,3.903194 4.55886,2.842409 6.18304,3.718724 10.69647,5.188723 1.42982,0.429154 3.31747,0.982346 4.7474,1.461395 0.62638,0.209844 2.33664,1.130891 1.86603,0.667301 -0.70922,-0.698657 -1.67126,-1.14444 -2.62839,-1.418312 -0.34966,-0.10005 0.544,0.518756 0.673,0.858809 0.12655,0.333571 0.0389,0.712482 0.0583,1.068722 -0.91089,2.261513 -2.16933,3.063535 -4.36517,4.199832 -1.05041,0.543562 -2.14293,1.004197 -3.23909,1.448319 -2.2054,0.89353 -3.93533,1.402999 -6.1731,2.116955 -2.51174,0.57228 -1.39719,0.508572 -3.31981,0.442237 0,0 3.80849,2.739673 3.80849,2.739673 v 0 c 1.78371,-0.243626 0.74216,-0.04289 3.09164,-0.753492 3.17732,-1.116732 6.39741,-2.185111 9.43721,-3.650552 0.97718,-0.471081 1.97867,-0.92028 2.86026,-1.552403 1.14022,-0.817568 1.45815,-1.706212 2.06994,-2.863267 0.023,-0.442165 0.17676,-0.897014 0.0691,-1.326504 -0.1017,-0.405813 -0.32382,-0.824596 -0.66785,-1.062651 -1.66232,-1.150229 -3.45458,-2.106981 -5.2514,-3.03313 -0.5667,-0.292092 -1.20602,-0.414251 -1.81333,-0.60827 -1.56439,-0.499792 -3.14712,-0.940997 -4.7104,-1.44442 -0.80382,-0.275905 -1.61813,-0.522954 -2.41146,-0.827716 -0.7408,-0.284581 -1.39599,-0.885121 -2.18773,-0.939079 -0.55973,-0.03814 1.85957,1.248439 1.4301,0.887451 -0.74048,-0.62242 -1.62702,-1.055517 -2.36876,-1.67644 -2.20169,-1.843092 -2.13464,-2.109186 -3.66968,-4.453481 -0.2465,-0.844923 -0.6416,-1.660084 -0.73947,-2.534769 -0.29661,-2.65096 1.22708,-5.431227 3.78625,-6.309488 0.51748,-0.177591 1.07512,-0.203553 1.61267,-0.305328 0.57492,-0.01812 1.14981,-0.07205 1.72474,-0.05432 2.69661,0.08323 5.29851,0.888628 7.88489,1.575598 z" />
    <path
       style="fill:none;fill-rule:evenodd;stroke:#000000;stroke-width:1.92414;stroke-linecap:round;paint-order:fill markers stroke"
       id="path20"
       d="m 140.42957,62.088968 c 2.38108,5.299459 4.42253,10.758261 6.22077,16.281895 0.84102,2.557974 1.30997,5.201523 1.64721,7.864709 0,0 4.11846,2.027906 4.11846,2.027906 v 0 c -0.40425,-2.718571 -0.88949,-5.428161 -1.80229,-8.031529 -1.85299,-5.414626 -3.97053,-10.734169 -5.86044,-16.136329 z" />
    <path
       style="fill:none;fill-rule:evenodd;stroke:#000000;stroke-width:1.92414;stroke-linecap:round;paint-order:fill markers stroke"
       id="path21"
       d="m 133.1593,48.474799 c -0.7353,1.145998 -0.95332,2.472251 -1.02505,3.805833 0.08,1.724138 0.39552,3.505501 1.36932,4.969916 0.19846,0.298437 0.44648,0.560764 0.66972,0.841143 2.04775,1.698459 5.9977,4.871264 9.05121,3.548606 0.40699,-0.176296 0.7498,-0.47402 1.12471,-0.711032 1.64573,-1.515779 2.55589,-3.523825 1.15785,-5.613514 -1.06202,-1.5874 -2.57963,-2.444493 -4.09145,-3.519091 -2.36668,-1.141841 -6.11062,-4.523999 -9.46805,-4.060582 -0.31717,0.04378 -0.59624,0.233568 -0.89436,0.350354 0,0 3.93939,2.651155 3.93939,2.651155 v 0 c 0.82537,-0.293814 0.912,-0.423815 1.94836,-0.208441 1.78993,0.371979 2.99242,1.310751 0.41024,-0.33134 1.42955,0.965991 2.9545,1.80777 4.02533,3.217228 1.40056,1.843438 0.60572,3.632639 -0.94526,4.975531 -0.9538,0.521561 -1.07106,0.735433 -2.1815,0.76333 -1.66709,0.04188 -5.34891,-2.232928 1.11834,1.367446 0.30405,0.169265 -0.57225,-0.396114 -0.85838,-0.594169 -0.2362,-0.255932 -0.49713,-0.491081 -0.70861,-0.767793 -1.02202,-1.337309 -1.34515,-3.06269 -1.44369,-4.701786 0.0492,-1.225515 0.23933,-2.485822 0.98441,-3.500673 z" />
    <path
       style="fill:none;fill-rule:evenodd;stroke:#000000;stroke-width:1.92414;stroke-linecap:round;paint-order:fill markers stroke"
       id="path22"
       d="m 149.00186,43.946898 c 1.69781,7.806662 3.79046,15.519905 5.83953,23.239602 1.50429,5.95824 3.15725,11.881533 5.63755,17.513239 0.68912,1.213979 1.81633,4.123164 3.1148,4.882643 4.70032,2.749249 3.09672,3.09607 5.44755,2.323668 1.27909,-1.050296 1.70566,-2.676195 1.99956,-4.237673 0.12982,-1.197989 0.18427,-2.404569 0.24003,-3.608325 0,0 -4.25203,-2.184209 -4.25203,-2.184209 v 0 c -0.0229,1.183651 -0.12049,2.368149 -0.21199,3.548483 -0.21296,1.358914 -0.49696,2.931653 -1.717,3.746619 -1.83251,0.144354 -0.83182,-0.0383 2.88527,2.187929 0.26802,0.160522 -0.53047,-0.339147 -0.75181,-0.559634 -1.19453,-1.189981 -1.91974,-2.793022 -2.70633,-4.248812 -2.62061,-5.658971 -4.42362,-11.642152 -6.07843,-17.644964 -2.08691,-7.50558 -4.28343,-15.04884 -5.11591,-22.819326 z" />
    <path
       style="fill:none;fill-rule:evenodd;stroke:#000000;stroke-width:1.92414;stroke-linecap:round;paint-order:fill markers stroke"
       id="path23"
       d="m 156.05554,73.898497 c 2.03795,-0.09971 4.07579,-0.09641 6.11457,-0.03084 1.83603,0.05905 2.38031,0.198154 4.18762,-0.06616 0.64117,-0.09376 1.26531,-0.280136 1.89796,-0.420202 3.52587,-1.198817 5.81394,-3.142327 7.92943,-6.132346 0.87847,-1.654343 1.7946,-3.541352 1.46256,-5.47699 -0.0501,-0.291796 -0.16416,-0.568906 -0.24624,-0.853357 -1.22282,-2.20154 -3.07795,-2.797579 -5.66033,-4.036375 -0.74436,-0.35709 -2.75757,0.443093 -3.4258,0.712297 -0.95713,0.607954 -1.46169,0.821766 -2.19534,1.731836 -1.63205,2.02446 -1.95492,4.736343 -2.31664,7.20982 -0.0792,2.952601 -0.14326,6.187045 1.28773,8.883419 0.90523,1.705683 1.4246,1.914463 2.87038,3.162471 2.07652,1.073867 4.04926,2.378094 6.22953,3.221597 1.03612,0.400855 2.19251,0.380735 3.30024,0.465281 3.19095,0.24354 6.39971,-0.0469 9.49079,-0.868755 0.73287,-0.194862 1.44081,-0.473679 2.16123,-0.710518 1.15094,-0.546948 1.72212,-0.680584 2.60129,-1.548371 0.23708,-0.234016 0.39601,-0.535767 0.59403,-0.80365 0,0 -4.07948,-2.402221 -4.07948,-2.402221 v 0 c -0.81245,1.245338 -1.42216,1.609691 -2.82431,2.242343 -0.68247,0.243092 -1.35064,0.53079 -2.04738,0.729284 -3.00582,0.856332 -6.18334,1.147972 -9.2951,0.806271 -1.13132,-0.12423 -2.25807,-0.939897 -3.35471,-0.635447 -0.58521,0.162468 0.92453,0.787854 1.38679,1.181781 -1.44031,-1.130973 -2.00838,-1.353526 -2.94743,-2.953796 -1.51809,-2.587057 -1.49479,-5.784789 -1.41183,-8.674398 0.37912,-2.351981 0.69726,-4.970157 2.3047,-6.86636 0.71956,-0.848838 1.18438,-1.018228 2.11506,-1.563571 0.92666,-0.311604 1.32548,-0.542796 2.30989,-0.51097 0.32468,0.01045 1.21575,0.378739 0.95745,0.181736 -1.04684,-0.798424 -2.23524,-1.393844 -3.38579,-2.033831 -0.21075,-0.117229 0.38969,0.287818 0.55776,0.460747 0.17867,0.183813 0.31774,0.402319 0.47661,0.603482 0.1016,0.253387 0.23654,0.495839 0.3048,0.760164 0.46945,1.817819 -0.41473,3.660255 -1.21656,5.233744 -1.99713,2.919595 -4.23576,4.804338 -7.66192,5.893909 -0.61497,0.126697 -1.22256,0.297157 -1.84495,0.380099 -1.60684,0.214128 -2.48562,0.110639 -4.11337,0.06747 -2.12296,-0.05631 -4.24647,-0.06751 -6.36892,-0.140902 z" />
  </g>
</svg>
