<?xml version="1.0" encoding="UTF-8" standalone="no"?>
<!-- Created with Inkscape (http://www.inkscape.org/) -->

<svg
   width="706"
   height="382"
   viewBox="0 0 186.79505 101.07116"
   version="1.1"
   id="svg1"
   inkscape:version="1.4 (86a8ad7, 2024-10-11)"
   sodipodi:docname="name.svg"
   xmlns:inkscape="http://www.inkscape.org/namespaces/inkscape"
   xmlns:sodipodi="http://sodipodi.sourceforge.net/DTD/sodipodi-0.dtd"
   xmlns="http://www.w3.org/2000/svg"
   xmlns:svg="http://www.w3.org/2000/svg">
  <sodipodi:namedview
     id="namedview1"
     pagecolor="#ffffff"
     bordercolor="#999999"
     borderopacity="1"
     inkscape:showpageshadow="2"
     inkscape:pageopacity="0"
     inkscape:pagecheckerboard="true"
     inkscape:deskcolor="#d1d1d1"
     inkscape:document-units="px"
     inkscape:zoom="0.70710678"
     inkscape:cx="491.43921"
     inkscape:cy="164.75588"
     inkscape:window-width="1366"
     inkscape:window-height="705"
     inkscape:window-x="-8"
     inkscape:window-y="-8"
     inkscape:window-maximized="1"
     inkscape:current-layer="layer1"
     showguides="false"
     showborder="true"
     inkscape:antialias-rendering="true"
     labelstyle="default" />
  <defs
     id="defs1" />
  <g
     inkscape:label="Layer 1"
     inkscape:groupmode="layer"
     id="layer1">
    <path
       style="fill:none;fill-rule:evenodd;stroke:#000000;stroke-width:1.56501;stroke-linecap:round;paint-order:fill markers stroke"
       id="path7"
       d="m 13.950902,18.172738 c 2.610456,-0.435271 -1.211129,0.208239 3.730511,-0.673322 4.790119,-0.85453 3.407138,-0.538838 8.480563,-1.55631 2.869336,-0.575444 6.644239,-1.397768 9.502664,-2.012515 4.747324,-0.992677 9.520056,-1.982422 14.349007,-2.499107 1.305562,-0.139692 4.280491,-0.40017 5.831011,-0.08738 0.257975,0.05204 0.43927,0.289962 0.658907,0.434942 -4.516117,-2.1616158 -2.533434,-2.2099337 -5.755633,-1.50765 0,0 2.831104,1.982144 2.831104,1.982144 v 0 c 3.150526,-0.444063 2.489134,0.242741 -0.07681,-2.8594304 -1.470975,-0.22131 -4.493916,0.2953991 -5.710807,0.473061 -1.500902,0.2191264 -2.995652,0.4785504 -4.492294,0.7250834 -6.165914,1.015674 -3.80474,0.589781 -9.801804,1.832551 -7.500888,1.601849 -15.033615,3.292262 -22.732925,3.512262 z" />
    <path
       style="fill:none;fill-rule:evenodd;stroke:#000000;stroke-width:1.56501;stroke-linecap:round;paint-order:fill markers stroke"
       id="path8"
       d="m 31.720713,14.146633 c 0.512061,4.185565 0.901889,8.387102 1.038112,12.603245 0.04709,1.457504 0.04885,2.916121 0.07327,4.374181 -0.08836,3.955774 0.02978,7.94935 -0.506744,11.880736 0,0 3.347744,1.716522 3.347744,1.716522 v 0 C 35.370092,40.617179 35.389621,36.496774 35.312709,32.384643 35.286859,26.880916 35.288023,21.376254 35.160957,15.874139 Z" />
    <path
       style="fill:none;fill-rule:evenodd;stroke:#000000;stroke-width:1.56501;stroke-linecap:round;paint-order:fill markers stroke"
       id="path9"
       d="m 60.577768,4.9570384 c 0.664244,2.0669298 1.013276,4.2255988 1.298003,6.3718856 0.457408,3.447977 0.638854,5.568203 0.759261,9.095595 0.05612,1.644168 0.03966,3.290013 0.05949,4.935019 -0.01392,4.189025 -0.222672,8.377333 -0.683575,12.541427 -0.0908,0.820386 -0.464536,3.663301 -0.682887,4.678508 -0.06997,0.325344 -0.20061,0.634611 -0.300916,0.951919 1.113547,0.494738 2.124405,1.40989 3.340638,1.484214 0.428705,0.02619 -0.09424,-0.856009 -0.08843,-1.285474 0.0098,-0.721178 0.06816,-1.441376 0.135033,-2.159513 0.185979,-1.997355 0.457874,-3.903933 0.828551,-5.877117 0.1826,-0.972027 0.410997,-1.934887 0.616494,-2.902329 0.636672,-2.446138 1.440871,-4.902165 3.14524,-6.839214 0.958385,-1.089224 2.143738,-1.900908 3.424541,-2.556562 0.556187,-0.284717 1.154232,-0.478935 1.731349,-0.718402 -1.117726,-1.365069 3.468144,0.546288 2.656849,0.185793 -0.756092,-0.335968 -1.541076,-1.190772 -2.314459,-0.896785 -0.518048,0.196926 0.430341,1.033363 0.513849,1.581252 0.279666,1.834856 -0.04704,3.338532 -0.26601,5.176781 -0.973008,5.417259 -2.742397,10.63727 -4.380536,15.876707 -0.03031,0.211654 -0.06062,0.423309 -0.09092,0.634963 0,0 3.413636,1.716792 3.413636,1.716792 v 0 c -0.05277,-0.215364 -0.10555,-0.43073 -0.158324,-0.646096 0.340805,-2.091848 0.142285,-1.121515 0.771109,-3.612009 1.052842,-4.169861 2.26618,-8.296362 3.267748,-12.47901 0.319867,-1.778113 0.724694,-3.335228 0.627448,-5.145827 -0.0307,-0.57166 0.06838,-1.27419 -0.32983,-1.685483 -0.64966,-0.670993 -3.293481,-3.040683 -5.151231,-2.960192 -0.49646,0.02151 -0.96946,0.218837 -1.454189,0.328256 -0.567695,0.265264 -1.155823,0.490589 -1.703084,0.795793 -1.303715,0.727074 -2.472592,1.554089 -3.441873,2.709777 -1.688764,2.013542 -2.441724,4.53734 -3.055429,7.036497 -0.594481,2.891455 -1.149061,5.789296 -1.668074,8.695384 -0.122958,0.68848 -0.228612,1.379968 -0.350598,2.06862 -0.07658,0.432317 -0.557365,0.985539 -0.245074,1.294145 0.946656,0.935488 2.333096,1.281344 3.499642,1.922019 C 64.706927,39.040476 65.049526,32.798834 65.033932,26.54917 65.007792,19.901771 64.91426,13.235994 64.109858,6.628921 Z" />
    <path
       style="fill:none;fill-rule:evenodd;stroke:#000000;stroke-width:1.56501;stroke-linecap:round;paint-order:fill markers stroke"
       id="path10"
       d="m 98.489193,29.480058 c 1.841537,0.03192 3.654557,-0.217942 5.394627,-0.837999 0.62164,-0.221514 1.24391,-0.455064 1.82412,-0.769485 0.59544,-0.32268 1.12436,-0.755325 1.68655,-1.132988 0.90181,-0.859659 4.0963,-3.3717 2.84281,-4.978867 -0.33603,-0.430844 -0.85155,-0.706055 -1.35018,-0.929459 -1.73375,-0.776776 -3.54354,-1.371268 -5.31531,-2.056902 -0.94495,0.04917 -1.89853,0.01094 -2.83485,0.147517 -4.235571,0.617806 -7.902079,2.757066 -9.703813,6.792625 -0.430754,0.964816 -0.574222,2.033702 -0.861333,3.050553 0.07522,1.046669 -0.117009,2.148166 0.225662,3.140008 0.818766,2.369856 2.9519,4.196914 5.02319,5.399301 3.740457,2.171348 6.168824,3.462725 10.264654,3.76964 1.29917,0.09735 2.6038,-0.09722 3.9057,-0.145831 1.18269,-0.296017 2.39794,-0.483594 3.54807,-0.88805 2.85522,-1.004068 5.41072,-2.807501 7.6764,-4.774119 0.52913,-0.459286 1.01577,-0.965358 1.52365,-1.448037 0,0 -2.91902,-1.786561 -2.91902,-1.786561 v 0 c -0.46272,0.498702 -0.8985,1.023831 -1.38816,1.496105 -2.10711,2.032285 -4.57839,3.816212 -7.35675,4.813899 -1.11785,0.401409 -2.3022,0.585443 -3.4533,0.878165 -5.49151,0.179968 -2.23364,0.360274 -7.786427,-0.653501 -0.43253,-0.07897 -0.92322,0.03285 -1.3063,-0.182947 -1.980853,-1.115871 -4.102654,-2.834375 -4.927424,-5.078037 -0.351664,-0.956647 -0.188186,-2.029766 -0.282277,-3.044649 0.271924,-0.989807 0.396337,-2.032545 0.815771,-2.969421 1.254654,-2.802468 3.7501,-4.89122 6.625037,-5.874189 2.39105,-0.81752 3.42529,-0.623448 5.88189,-0.629787 -0.22815,-0.411861 -1.02958,-0.915323 -0.68445,-1.235583 0.72564,-0.673355 1.7515,1.186754 1.75345,1.556043 0.005,0.866138 -0.95465,1.964037 -1.43806,2.486889 -0.42645,0.461237 -0.91702,0.858754 -1.37552,1.28813 -0.55317,0.357176 -1.07485,0.768608 -1.6595,1.071528 -2.27407,1.178265 -4.954347,1.550143 -7.467978,1.153961 z" />
    <path
       style="fill:none;fill-rule:evenodd;stroke:#000000;stroke-width:1.56501;stroke-linecap:round;paint-order:fill markers stroke"
       id="path11"
       d="m 6.3414841,60.460933 c 0.1691355,0.331096 0.367721,0.648732 0.507406,0.993289 2.166724,5.344586 3.093516,11.307185 3.9339649,16.982168 0.513344,3.923506 0.831733,7.874133 0.863454,11.831559 -0.06491,1.841742 -0.502355,2.082429 3.759786,2.009305 0.462096,-0.0079 0.384602,-0.840629 0.587772,-1.25574 1.158506,-2.367034 0.99115,-1.976743 2.406168,-4.473194 1.389972,-2.328793 2.823239,-4.64549 4.474534,-6.801474 0.470347,-0.614097 1.804507,-2.266709 2.514842,-2.769009 0.465171,-0.328936 1.023023,-0.501752 1.534533,-0.752628 1.612511,-0.202272 1.992647,-0.421051 3.598885,0.06991 0.591375,0.180758 1.285382,0.302761 1.686087,0.773755 0.34397,0.404309 -1.376973,-1.066576 -1.494874,-0.549002 -0.146315,0.6423 0.897546,0.969895 1.276198,1.508946 0.383385,0.545789 0.667231,1.155114 1.000845,1.732669 0.866003,1.782629 1.369062,3.692951 1.731826,5.631998 0.08438,0.45104 0.127844,0.909043 0.210445,1.360413 0.0438,0.239367 -0.03687,0.579776 0.1685,0.710314 1.147627,0.729461 2.459369,1.161101 3.689056,1.741652 0.192192,-0.434609 0.403049,-0.861436 0.576574,-1.303829 0.73506,-1.874008 1.349838,-3.793265 2.061495,-5.676284 1.551969,-4.106469 3.270058,-8.140085 5.012138,-12.16828 1.941424,-4.345246 3.906158,-8.698839 6.306088,-12.815042 0,0 -3.203062,-1.830566 -3.203062,-1.830566 v 0 c -2.008692,4.356335 -3.658438,8.86888 -5.523397,13.28646 -1.706955,4.033809 -3.416619,8.064239 -5.223885,12.054503 -0.766371,1.692069 -1.646238,3.688569 -2.587851,5.335976 -0.19054,0.333361 -0.434564,0.633164 -0.651846,0.949744 0.991839,0.675166 1.899398,1.494874 2.975517,2.025495 0.244198,0.120413 -0.275744,-0.474743 -0.357331,-0.734501 -0.145773,-0.464102 -0.21434,-0.949011 -0.32056,-1.423731 -0.437276,-1.95428 -0.863156,-3.91763 -1.72492,-5.741986 -0.49949,-0.919224 -1.323569,-2.668168 -2.192774,-3.351943 -2.054967,-1.616584 -5.139456,-3.887965 -8.070245,-3.818099 -0.632893,0.01508 -1.249711,0.203359 -1.874566,0.305039 -0.536939,0.281301 -1.12947,0.475482 -1.610823,0.843905 -0.627047,0.47994 -1.988569,2.36338 -2.374407,2.918277 -1.55198,2.23199 -2.912257,4.59287 -4.384829,6.876033 -0.421725,0.655137 -2.232483,3.472534 -2.761707,4.279613 -0.251185,0.383065 -1.029325,0.767943 -0.764669,1.141827 0.747663,1.056236 2.138327,1.460486 3.164667,2.248685 0.19303,0.148244 -2.134648,-0.321326 -0.296447,-0.667268 -0.324117,-4.081669 -0.88068,-8.139455 -1.495495,-12.186578 -0.779336,-4.835385 -1.689229,-9.631152 -2.739377,-14.415126 -0.170537,-0.77688 -0.325677,-1.557356 -0.514116,-2.33009 -0.07815,-0.320465 -0.190119,-0.631724 -0.2851779,-0.947588 z" />
    <path
       style="fill:none;fill-rule:evenodd;stroke:#000000;stroke-width:1.56501;stroke-linecap:round;paint-order:fill markers stroke"
       id="path12"
       d="m 50.534002,78.435736 c 2.432701,2.196081 5.519278,3.452478 8.772616,3.435722 0.677645,-0.0035 1.351319,-0.103939 2.026977,-0.155912 0.666472,-0.182404 1.361445,-0.281787 1.999416,-0.547215 2.239809,-0.931879 4.603739,-3.236755 6.038606,-5.180475 0.255535,-0.346156 0.453294,-0.731446 0.679939,-1.09717 0.02479,-0.297425 0.299263,-0.696018 0.07441,-0.892271 -1.164371,-1.016263 -2.465689,-1.958945 -3.924816,-2.468359 -0.592473,-0.206844 -1.227779,0.269217 -1.825345,0.460847 -1.926658,0.617852 -3.104952,1.15603 -4.858344,2.233994 -0.822023,0.505369 -1.585473,1.10035 -2.37821,1.650526 -0.676949,0.619485 -1.397637,1.194328 -2.030851,1.858456 -1.599128,1.677191 -3.004782,3.787552 -3.557131,6.070658 -0.437299,1.807557 -0.226198,2.221838 0.0059,3.977153 0.227923,0.51123 0.366978,1.072231 0.68377,1.533695 1.110868,1.618176 4.654204,2.952821 5.704561,3.257164 0.607784,0.176107 1.267128,-0.127207 1.87279,-0.310479 1.764751,-0.534005 2.788732,-1.32744 4.362383,-2.301827 3.376407,-2.298386 6.250594,-5.191868 9.047858,-8.140384 0,0 -2.757217,-1.673263 -2.757217,-1.673263 v 0 c -0.609827,0.688372 -1.193939,1.400407 -1.82948,2.065112 -2.161617,2.260798 -4.550683,4.289736 -7.185061,5.981697 -1.588058,0.875104 -2.706964,1.655432 -4.475799,2.060275 -0.60425,0.138298 -1.719703,-0.453439 -1.853416,0.151842 -0.145463,0.658476 1.075837,0.825934 1.52662,1.32748 0.696507,0.774941 -3.472203,-2.761561 -1.975849,-2.422179 -0.112676,-0.609623 -0.312723,-1.209436 -0.33803,-1.828864 -0.122516,-2.998801 1.552855,-5.912897 3.523762,-8.044568 0.610385,-0.660169 1.313615,-1.228001 1.970422,-1.842003 0.786839,-0.537927 1.537697,-1.132696 2.360523,-1.613782 1.561168,-0.912776 3.235426,-1.650693 5.022007,-1.99115 0.623199,-0.118758 2.064495,0.507896 1.90035,-0.104918 -0.204582,-0.763783 -3.157908,-2.788638 -2.227958,-0.814345 -0.182899,0.368248 -0.326307,0.758912 -0.548698,1.104745 -1.282916,1.995026 -3.609111,4.19352 -5.831685,5.048934 -0.63056,0.242687 -1.311369,0.326079 -1.967054,0.489121 -1.892963,0.09237 -2.100265,0.211347 -3.963469,-0.124064 -0.554762,-0.09987 -1.868719,-0.937054 -1.637256,-0.423091 0.34523,0.766575 1.393433,0.941124 2.085517,1.418452 0.293495,0.202423 -1.019089,-0.630338 -0.854951,-0.642717 z" />
    <path
       style="fill:none;fill-rule:evenodd;stroke:#000000;stroke-width:1.56501;stroke-linecap:round;paint-order:fill markers stroke"
       id="path13"
       d="m 74.347732,58.461833 c 1.484908,5.677726 1.7642,11.592779 2.045154,17.427931 0.07548,3.416679 0.127445,6.846871 -0.177583,10.2556 -0.0567,0.633621 -0.112346,1.270507 -0.245114,1.89265 -0.05458,0.255779 -0.529023,0.573214 -0.312387,0.719741 0.95534,0.646154 2.150655,0.833935 3.225981,1.250901 -0.08249,-0.481689 -0.21135,-0.957702 -0.247479,-1.445066 -0.292524,-3.945996 0.527044,-7.992011 2.032515,-11.63274 0.399818,-0.966886 0.932225,-1.873463 1.398338,-2.810192 1.046357,-1.403717 1.843398,-2.85149 3.469475,-3.688547 1.317097,-0.678003 2.746519,-0.616775 4.111044,-0.17261 0.683966,0.22264 1.437565,0.443009 1.927956,0.969217 0.287257,0.308241 -0.828188,-0.155639 -1.242281,-0.233456 0.420326,0.620612 0.931892,1.188386 1.260982,1.861835 1.650463,3.377521 0.913411,7.323982 -0.983428,10.429326 -0.552417,0.904367 -1.288943,1.682501 -1.933415,2.523752 -0.785974,0.704564 -1.53317,1.454938 -2.357916,2.113695 -1.770773,1.41438 -4.00752,2.810954 -6.181006,3.53607 0,0 3.194789,2.100008 3.194789,2.100008 v 0 c 1.123229,-0.836017 -0.343007,0.236049 1.669952,-1.104755 2.253993,-1.501355 4.429125,-3.129458 6.341331,-5.057626 1.644528,-2.125207 2.462765,-2.841659 3.402495,-5.393589 0.920951,-2.500946 1.022575,-5.327208 -0.06919,-7.793432 -0.308413,-0.696685 -0.806569,-1.292828 -1.209854,-1.939244 -1.261432,-0.875734 -4.399216,-3.473097 -6.547828,-4.048353 -1.45974,-0.39082 -2.883468,-0.350447 -4.218618,0.442427 -1.55747,0.924894 -2.366986,2.485962 -3.346189,3.915323 -0.45464,0.957811 -0.966434,1.890528 -1.363921,2.873432 -0.606528,1.499812 -1.646738,4.877473 -1.98303,6.463523 -0.449182,2.118479 -0.552481,4.316573 -0.63384,6.473464 1.199826,0.717163 2.27522,1.703999 3.599478,2.15149 0.289391,0.09779 0.05098,-0.609049 0.06161,-0.914334 0.14469,-4.15334 -0.03461,-8.312406 -0.116306,-12.464564 -0.206045,-5.680337 -0.413315,-11.370388 -1.06279,-17.020955 z" />
    <path
       style="fill:none;fill-rule:evenodd;stroke:#000000;stroke-width:1.56501;stroke-linecap:round;paint-order:fill markers stroke"
       id="path14"
       d="m 112.89503,70.135088 c -1.93042,-1.371252 -4.05516,-2.680606 -6.35779,-3.346985 -1.27674,-0.369487 -1.5177,-0.370722 -2.84452,-0.596071 -0.54245,0.01476 -1.09036,-0.03392 -1.62734,0.04427 -1.75382,0.255396 -3.456127,1.123385 -4.598707,2.499025 -0.4018,0.48376 -0.80706,1.002512 -0.995756,1.602399 -0.215716,0.685778 -0.122807,1.432557 -0.184212,2.148837 0.286934,0.78179 0.437998,1.627899 0.860798,2.34537 1.0543,1.789084 2.81447,3.243371 4.429007,4.471865 1.77952,1.354023 3.02783,2.012554 4.88234,3.176476 0.6332,0.397409 1.25671,0.810054 1.88507,1.21508 0.45759,0.423583 0.97311,0.79212 1.37277,1.270745 1.09712,1.313899 1.30238,2.747265 0.23697,4.174221 -0.95069,1.273296 -1.91817,1.564429 -3.29986,2.295335 -0.8721,0.23685 -1.73109,0.528686 -2.61629,0.710551 -1.99054,0.408957 -5.395337,0.82218 -7.425165,0.388402 -0.443255,-0.09472 -0.835515,-0.351723 -1.253269,-0.527584 0,0 2.871927,2.240253 2.871927,2.240253 v 0 c 0.3875,0.110263 0.7625,0.282696 1.16251,0.330789 1.287037,0.154747 3.236617,-0.03857 4.446077,-0.182825 2.96615,-0.353781 2.7425,-0.394072 5.62663,-1.114474 1.50961,-0.762844 2.51074,-1.035792 3.56564,-2.393765 1.20322,-1.548921 1.09027,-3.120829 -0.1129,-4.60689 -0.41749,-0.515659 -0.96422,-0.911644 -1.44633,-1.367467 -0.66574,-0.422448 -1.32521,-0.854917 -1.9972,-1.267348 -1.96674,-1.207091 -3.13804,-1.779075 -5.02881,-3.183263 -1.56404,-1.161536 -3.24585,-2.525295 -4.28219,-4.22749 -0.403177,-0.662231 -0.560657,-1.445707 -0.840987,-2.168562 0.0538,-0.657828 -0.0403,-1.345019 0.16131,-1.973486 0.18203,-0.56734 0.568857,-1.057517 0.956397,-1.510091 1.12453,-1.31325 2.79293,-2.092094 4.49504,-2.262277 0.53647,-0.05364 1.0781,0.01992 1.61715,0.02989 1.29158,0.250199 1.6165,0.26894 2.85803,0.681972 0.40983,0.136348 0.81343,0.29286 1.20868,0.467041 0.3192,0.140674 1.22863,0.659545 0.93183,0.47627 -1.43445,-0.885767 -3.72338,-2.116938 -2.3062,-1.351835 z" />
    <path
       style="fill:none;fill-rule:evenodd;stroke:#000000;stroke-width:1.56501;stroke-linecap:round;paint-order:fill markers stroke"
       id="path15"
       d="m 121.66645,71.462711 c 0.6077,5.338932 0.55099,10.729936 0.50123,16.095255 -0.013,0.784317 -0.0228,1.568696 -0.039,2.352955 -0.0259,1.2505 -0.0496,2.075333 -0.10473,3.284308 -0.01,0.210186 -0.21005,0.511122 -0.0366,0.630158 3.80509,2.610684 3.45685,2.847117 3.53999,0.62879 0.0168,-0.500022 0.0337,-1.000041 0.0505,-1.500063 0,0 -3.18635,-1.653961 -3.18635,-1.653961 v 0 c -0.0571,0.476754 -0.11416,0.953508 -0.17124,1.430263 -0.3288,1.951785 -0.47985,1.301061 3.18285,2.792633 0.22044,0.08977 -0.14333,-0.457122 -0.16923,-0.693734 -0.0529,-0.483549 -0.0475,-0.971731 -0.0663,-1.457804 -0.0618,-1.594241 -0.0864,-2.725043 -0.12998,-4.353593 -0.11614,-5.272037 -0.2208,-10.552718 0.0949,-15.820188 z" />
    <path
       id="path16"
       style="fill:none;fill-rule:evenodd;stroke:#000000;stroke-width:1.56501;stroke-linecap:round;paint-order:fill markers stroke"
       d="m 35.375196,11.59035 c 0.869419,0.743869 1.739214,1.488044 2.608635,2.231913 l 3.249425,1.312585 -2.794671,-2.306326 z m 89.285794,46.28208 c -0.63825,0.02603 -1.14951,0.687844 -1.73065,0.998909 -1.82201,1.297486 -3.54579,2.740678 -5.12425,4.326881 -0.58754,0.590417 -1.28754,1.296086 -1.66037,2.076883 -0.0981,0.205534 -0.11125,0.442156 -0.16692,0.66301 l 3.38275,1.780776 c 5.3e-4,-0.19842 -0.0512,-0.404072 0.002,-0.595314 0.11534,-0.416985 0.32499,-0.798441 0.57516,-1.153422 -0.64641,-0.900566 -0.39543,-2.019627 -0.21394,-3.046852 l 1.96319,1.081074 c 1.24003,-1.229118 2.61432,-2.320893 4.09382,-3.248391 3.48117,-1.436989 1.42837,0.110535 0.262,-2.566777 -0.0136,-0.03112 -0.0172,-0.0533 -0.0165,-0.07131 -0.40511,-0.115504 -0.81666,-0.201383 -1.23714,-0.241847 -0.0437,-0.0042 -0.0866,-0.0054 -0.12919,-0.0036 z m 1.36633,0.245464 c 0.15842,0.04517 0.31567,0.09545 0.47232,0.148828 -0.25179,-0.153564 -0.4688,-0.251518 -0.47232,-0.148828 z m 0.47232,0.148828 c 0.2451,0.149485 0.52082,0.34945 0.66353,0.472324 0.6809,0.58626 1.06555,1.641462 1.15135,2.497014 0.0546,0.544514 -0.0519,1.093078 -0.078,1.639698 -0.18017,0.568073 -0.28128,1.167686 -0.54054,1.704294 -0.52277,1.082002 -1.19331,1.87916 -2.3027,2.375057 -0.44723,0.199915 -0.94314,0.319368 -1.433,0.324012 -0.23705,0.0023 -0.63918,-0.17836 -0.95395,-0.305925 0.006,0.01457 0.0116,0.02947 0.0186,0.04393 0.32932,0.680474 0.82885,0.860211 1.44436,1.258842 -0.63174,-0.431426 -1.54692,-0.612757 -1.89498,-1.293982 -0.1071,-0.209619 0.11946,-0.135452 0.43201,-0.0088 -0.2988,-0.678321 0.0182,-1.478926 0.17415,-2.147163 l -1.49242,-0.821658 c -0.32566,0.322802 -0.6441,0.65257 -0.95033,0.994258 -0.27182,0.303297 -0.5547,0.624979 -0.79892,0.97152 0.049,0.06823 0.10204,0.13544 0.16175,0.201022 0.27195,0.298686 0.63272,0.502036 0.9493,0.752928 0.59955,0.31548 3.9604,2.680242 5.78519,2.526469 1.83752,-0.154846 3.13131,-1.545895 3.87006,-3.111448 0.26709,-0.565998 0.39204,-1.188489 0.58808,-1.782843 0.12783,-1.368128 0.33764,-1.884336 -0.13694,-3.191547 -0.15303,-0.421503 -0.36949,-0.834114 -0.6718,-1.165307 -0.28014,-0.30691 -0.64619,-0.543242 -1.03094,-0.700218 -0.97979,-0.399742 -1.95043,-0.890563 -2.95384,-1.232487 z" />
    <path
       style="fill:none;fill-rule:evenodd;stroke:#000000;stroke-width:1.56501;stroke-linecap:round;paint-order:fill markers stroke"
       id="path17"
       d="m 138.30703,50.368188 c 1.01918,4.482861 1.29562,9.09209 1.58487,13.666665 0.22475,5.156519 0.39075,10.320404 0.31541,15.482594 -0.0313,2.144614 -0.11613,4.059457 -0.19771,6.194216 -0.1659,3.413052 -0.36229,6.824482 -0.53363,10.237272 -0.006,0.263968 -0.0928,0.539035 -0.0168,0.791903 0.0678,0.225868 0.20828,0.472037 0.42462,0.565917 1.52753,0.662849 3.06903,1.383812 4.7107,1.662475 0.69473,0.117928 1.37261,-0.321882 2.05035,-0.51482 1.87958,-0.535077 2.62716,-0.844616 4.44871,-1.509347 2.6427,-1.01743 5.10556,-2.517744 6.78825,-4.843045 0.22026,-0.304375 0.40144,-0.635204 0.60216,-0.952805 0.15232,-0.316287 0.64424,-1.218736 0.64614,-1.636925 0.001,-0.26778 -0.14659,-0.515114 -0.21989,-0.772673 0,0 -3.45043,-1.587958 -3.45043,-1.587958 v 0 c 0.11402,0.18649 0.3103,0.343206 0.34205,0.559469 0.0568,0.386891 -0.39359,1.305215 -0.51189,1.586518 -0.17854,0.313395 -0.33614,0.639691 -0.53563,0.940184 -1.53689,2.314991 -3.92437,3.787122 -6.44763,4.828909 -1.77822,0.660026 -2.57581,1.020464 -4.45133,1.447392 -0.71674,0.163151 -2.0334,-0.354569 -2.1745,0.366836 -0.16273,0.831929 1.23942,1.17052 1.73999,1.854637 0.24996,0.341616 -1.91379,-0.984907 -0.64286,-1.095151 -0.0205,-3.493364 0.0291,-6.986537 0.059,-10.479745 0.0685,-7.268849 -0.0686,-14.535139 -0.31279,-21.800204 -0.13503,-4.422267 -0.24348,-8.848293 -0.6946,-13.252348 z" />
    <path
       style="fill:none;fill-rule:evenodd;stroke:#000000;stroke-width:1.56501;stroke-linecap:round;paint-order:fill markers stroke"
       id="path18"
       d="m 135.91972,81.843467 c 0.28948,-0.287693 0.55754,-0.598669 0.86843,-0.863081 3.94789,-3.357691 8.46106,-6.090579 12.86015,-8.807912 0,0 -2.46568,-1.584989 -2.46568,-1.584989 v 0 c -2.19145,1.45796 -4.5907,3.070654 -6.80581,4.471455 -10.1532,6.420714 1.91875,-1.268639 -6.67978,3.989544 -0.37755,0.230882 -0.72092,0.513495 -1.08138,0.770242 z" />
    <path
       style="fill:none;fill-rule:evenodd;stroke:#000000;stroke-width:1.56501;stroke-linecap:round;paint-order:fill markers stroke"
       id="path19"
       d="m 164.23798,78.199105 c 1.96706,0.356051 3.94461,-0.381927 5.74949,-1.079392 1.54893,-0.631555 2.74342,-1.780038 3.8761,-2.974131 0.4369,-0.46058 1.32146,-1.439738 1.61983,-2.059791 0.13263,-0.27562 0.15289,-0.592327 0.22933,-0.88849 -0.0844,-0.258893 -0.0904,-0.558368 -0.25312,-0.776679 -0.20009,-0.268415 -0.48834,-0.474275 -0.78907,-0.621389 -1.47679,-0.722402 -2.91564,-1.612853 -4.5192,-1.975272 -0.61854,-0.139798 -1.2433,0.286166 -1.82366,0.541726 -1.8856,0.830302 -2.25654,1.38818 -3.79793,2.763653 -0.52154,0.626748 -1.15925,1.172783 -1.56462,1.880239 -0.92252,1.610011 -1.56273,4.219529 -1.78773,6.012793 -0.24015,1.913929 -0.23841,4.296497 0.26616,6.190766 0.22306,0.83742 0.67406,1.596793 1.01109,2.395189 2.64127,2.115099 3.12389,2.798523 7.32768,3.815881 0.89576,0.216782 1.84984,-0.08353 2.75094,-0.276914 1.71814,-0.368721 3.42474,-1.183345 4.92757,-2.070125 0.64856,-0.3827 1.24671,-0.845037 1.87006,-1.267554 1.07542,-0.934282 2.35183,-1.79857 3.15259,-3.014649 0.14834,-0.225273 0.22504,-0.49027 0.33757,-0.735407 0,0 -3.30869,-1.843332 -3.30869,-1.843332 v 0 c -0.0713,0.228106 -0.10287,0.472711 -0.21396,0.684315 -0.63091,1.2017 -1.85293,2.196806 -2.81836,3.092966 -0.58966,0.427248 -1.1488,0.90014 -1.76898,1.281739 -1.46073,0.898795 -3.10884,1.676398 -4.80991,1.992176 -0.89265,0.165707 -1.89705,-0.218401 -2.71851,0.168242 -0.30598,0.144023 0.63252,1.05446 0.30572,0.96741 -0.80783,-0.215192 -1.37172,-0.956046 -2.05758,-1.434068 -0.37847,-0.786024 -0.87586,-1.525183 -1.13541,-2.358075 -1.13578,-3.644707 -0.46281,-8.637887 1.52043,-11.889757 0.41521,-0.680818 1.02224,-1.2242 1.53337,-1.8363 1.49684,-1.258698 1.96924,-1.899791 3.83335,-2.545533 0.59772,-0.207058 1.86445,0.293247 1.86713,-0.339316 0.003,-0.807741 -1.31734,-0.955176 -1.85913,-1.554274 -0.34758,-0.384353 1.69754,0.829382 1.2041,0.983394 -0.0284,0.268095 0.01,0.552036 -0.0851,0.804283 -0.22976,0.609152 -1.07667,1.62292 -1.47163,2.057291 -1.08663,1.195055 -2.30014,2.23304 -3.82298,2.826275 -1.84349,0.651944 -3.95021,1.355248 -5.8838,0.638969 z" />
  </g>
</svg>
